<?xml version="1.0" encoding="utf-8"?>
<!-- Generator: Adobe Illustrator 24.1.0, SVG Export Plug-In . SVG Version: 6.00 Build 0)  -->
<svg version="1.1" id="Layer_1" xmlns="http://www.w3.org/2000/svg" xmlns:xlink="http://www.w3.org/1999/xlink" x="0px" y="0px"
	 viewBox="0 0 128 128" style="enable-background:new 0 0 128 128;" xml:space="preserve">
<style type="text/css">
	.st0{fill:#737373;}
	.st1{fill:#F6F6F6;}
</style>
<circle class="st0" cx="64" cy="64.8" r="61.2"/>
<g>
	<g>
		<g>
			<path class="st1" d="M93.02,87.82l-4.96-8.27c-2.29-3.82-3.5-8.19-3.5-12.64v-7.24c0-9.14-6.1-16.88-14.45-19.37v-5.19
				c0-3.19-2.59-5.78-5.78-5.78c-3.19,0-5.78,2.59-5.78,5.78v5.19c-8.34,2.49-14.45,10.23-14.45,19.37v7.24
				c0,4.45-1.21,8.82-3.5,12.63l-4.96,8.27c-0.27,0.45-0.27,1-0.02,1.46c0.26,0.45,0.73,0.73,1.25,0.73h54.9
				c0.52,0,1-0.28,1.26-0.73C93.3,88.82,93.29,88.26,93.02,87.82z"/>
		</g>
	</g>
	<g>
		<g>
			<path class="st1" d="M55.24,92.89c1.63,3.4,5.08,5.78,9.1,5.78s7.47-2.37,9.1-5.78H55.24z"/>
		</g>
	</g>
	<g>
	</g>
	<g>
	</g>
	<g>
	</g>
	<g>
	</g>
	<g>
	</g>
	<g>
	</g>
	<g>
	</g>
	<g>
	</g>
	<g>
	</g>
	<g>
	</g>
	<g>
	</g>
	<g>
	</g>
	<g>
	</g>
	<g>
	</g>
	<g>
	</g>
</g>
</svg>
